<svg width="43" height="43" viewBox="0 0 43 43" fill="none" xmlns="http://www.w3.org/2000/svg">
<path d="M28.2187 21.5C28.2187 23.2819 27.5109 24.9909 26.2509 26.2509C24.9909 27.5109 23.2819 28.2187 21.5 28.2187C19.7181 28.2187 18.0091 27.5109 16.7491 26.2509C15.4891 24.9909 14.7812 23.2819 14.7812 21.5C14.7812 21.117 14.8216 20.743 14.891 20.3802H12.5417V29.3318C12.5417 29.9544 13.0456 30.4583 13.6682 30.4583H29.3341C29.6324 30.4577 29.9184 30.3388 30.1292 30.1276C30.34 29.9164 30.4583 29.6302 30.4583 29.3318V20.3802H28.109C28.1784 20.743 28.2187 21.117 28.2187 21.5V21.5ZM21.5 25.9792C22.0884 25.979 22.6709 25.863 23.2144 25.6377C23.758 25.4124 24.2518 25.0823 24.6677 24.6661C25.0836 24.25 25.4135 23.756 25.6386 23.2124C25.8636 22.6687 25.9793 22.0861 25.9792 21.4978C25.979 20.9094 25.863 20.3268 25.6377 19.7833C25.4124 19.2398 25.0823 18.746 24.6661 18.33C24.25 17.9141 23.756 17.5842 23.2124 17.3592C22.6687 17.1342 22.0861 17.0184 21.4978 17.0186C20.3095 17.0189 19.1701 17.4912 18.33 18.3316C17.49 19.1721 17.0183 20.3118 17.0186 21.5C17.0189 22.6882 17.4912 23.8277 18.3316 24.6677C19.1721 25.5077 20.3118 25.9795 21.5 25.9792V25.9792ZM26.875 16.7969H29.5603C29.7387 16.7969 29.9098 16.7262 30.0361 16.6002C30.1625 16.4743 30.2338 16.3034 30.2344 16.125V13.4397C30.2344 13.261 30.1634 13.0895 30.0369 12.9631C29.9105 12.8366 29.739 12.7656 29.5603 12.7656H26.875C26.6962 12.7656 26.5247 12.8366 26.3983 12.9631C26.2719 13.0895 26.2009 13.261 26.2009 13.4397V16.125C26.2031 16.4945 26.5055 16.7969 26.875 16.7969V16.7969ZM21.5 0C15.7978 0 10.3292 2.26517 6.2972 6.2972C2.26517 10.3292 0 15.7978 0 21.5C0 27.2022 2.26517 32.6708 6.2972 36.7028C10.3292 40.7348 15.7978 43 21.5 43C24.3234 43 27.1192 42.4439 29.7277 41.3634C32.3362 40.2829 34.7063 38.6993 36.7028 36.7028C38.6993 34.7063 40.2829 32.3362 41.3634 29.7277C42.4439 27.1192 43 24.3234 43 21.5C43 18.6766 42.4439 15.8808 41.3634 13.2723C40.2829 10.6638 38.6993 8.29366 36.7028 6.2972C34.7063 4.30074 32.3362 2.71707 29.7277 1.63659C27.1192 0.556114 24.3234 0 21.5 0V0ZM32.6979 30.2097C32.6979 31.5781 31.5781 32.6979 30.2097 32.6979H12.7903C11.4219 32.6979 10.3021 31.5781 10.3021 30.2097V12.7903C10.3021 11.4219 11.4219 10.3021 12.7903 10.3021H30.2097C31.5781 10.3021 32.6979 11.4219 32.6979 12.7903V30.2097V30.2097Z" fill="#F7F8FA"/>
</svg>
